<svg version="1.1" id="Layer_1" xmlns="http://www.w3.org/2000/svg" xmlns:xlink="http://www.w3.org/1999/xlink" x="0px" y="0px"
	 width="100%" viewBox="0 0 496 496" enable-background="new 0 0 496 496" xml:space="preserve">
<path fill="#000000" opacity="1.000000" stroke="none" 
	d="
M75.963638,261.000000 
	C75.962166,236.344055 75.950027,212.188110 75.965630,188.032166 
	C75.970375,180.683487 76.005394,180.666794 83.011742,180.666626 
	C180.801682,180.664276 278.591614,180.665543 376.381561,180.671005 
	C383.321625,180.671402 383.342834,180.689804 383.346161,187.395508 
	C383.363739,222.546524 383.281189,257.698029 383.479919,292.847992 
	C383.508087,297.831146 382.146790,299.380920 377.028442,299.373047 
	C278.738953,299.221680 180.449158,299.221649 82.159576,299.328949 
	C77.300667,299.334259 75.774261,297.710724 75.890823,292.983093 
	C76.149414,282.494507 75.966530,271.995026 75.963638,261.000000 
M379.682770,223.500092 
	C379.682800,212.334747 379.513702,201.165558 379.768585,190.006027 
	C379.866669,185.711807 378.672424,184.238876 374.170654,184.244141 
	C278.181091,184.356308 182.191330,184.354507 86.201820,184.224823 
	C81.354858,184.218277 79.970673,185.724838 79.994766,190.486038 
	C80.160034,223.148300 80.151810,255.812347 79.965576,288.474487 
	C79.937569,293.385651 81.262497,295.134430 86.419159,295.126526 
	C182.241928,294.979095 278.065002,294.971924 373.887878,295.068115 
	C378.562073,295.072815 379.811096,293.499573 379.769165,288.992249 
	C379.569214,267.496460 379.680939,245.997757 379.682770,223.500092 
z"/>
<path fill="#000000" opacity="1.000000" stroke="none" 
	d="
M262.000000,290.229919 
	C205.371078,290.233368 149.242172,290.240112 93.113251,290.236053 
	C85.656029,290.235535 85.645599,290.210205 85.644310,282.813385 
	C85.639351,254.332550 85.636032,225.851700 85.645409,197.370865 
	C85.647606,190.669312 85.671501,190.646133 92.103523,190.645981 
	C154.894623,190.644470 217.685715,190.648499 280.476807,190.659836 
	C287.214447,190.661057 287.238098,190.687241 287.240936,197.167023 
	C287.253571,225.980881 287.262848,254.794754 287.246094,283.608612 
	C287.242249,290.188873 287.192413,290.203613 280.487091,290.226593 
	C274.491455,290.247101 268.495697,290.230194 262.000000,290.229919 
M100.707443,229.497925 
	C101.893654,226.087646 102.981041,228.506744 103.761406,229.659027 
	C107.770287,235.578629 111.658508,241.579773 115.636276,247.520676 
	C118.416412,251.672882 120.827896,251.806992 123.673004,247.837845 
	C126.287689,244.190125 128.576111,240.307602 131.211258,236.675812 
	C133.378387,233.689072 134.653137,229.951202 138.021149,227.776001 
	C139.755035,229.492676 139.176483,231.422348 139.191910,233.149200 
	C139.269241,241.801208 139.203323,250.454498 139.280579,259.106506 
	C139.295715,260.799103 138.701447,263.285736 141.384521,263.404236 
	C144.443604,263.539246 143.934555,260.863129 143.945496,259.000793 
	C144.021729,246.022263 144.037018,233.043152 144.001495,220.064407 
	C143.996765,218.339813 144.441925,216.177582 141.944199,215.567963 
	C139.732956,215.028244 138.611267,216.522247 137.567139,218.112091 
	C132.727875,225.480637 127.892563,232.851913 123.012215,240.193207 
	C122.123657,241.529800 121.576523,243.266678 119.219711,243.743134 
	C118.382050,242.570145 117.401176,241.280838 116.508881,239.932922 
	C111.917175,232.996628 107.367882,226.032166 102.758507,219.107681 
	C101.482178,217.190308 100.263245,214.802505 97.366837,215.612427 
	C94.409294,216.439468 95.398521,219.132278 95.385941,221.117035 
	C95.306862,233.596313 95.307396,246.076645 95.393578,258.555847 
	C95.406830,260.473969 94.356415,263.459503 97.832108,263.484741 
	C101.547935,263.511719 100.589157,260.382355 100.610580,258.264069 
	C100.704803,248.946747 100.662224,239.628036 100.707443,229.497925 
M172.994629,229.374222 
	C168.428223,240.502533 163.861832,251.630829 159.281677,262.792664 
	C162.712631,264.244415 164.767227,263.387115 165.280548,260.943848 
	C166.986618,252.823288 172.490021,251.673203 179.424850,252.595627 
	C181.059128,252.813004 182.779434,252.834869 184.405090,252.586411 
	C190.811874,251.607162 195.303345,253.323395 196.821823,260.329010 
	C197.428329,263.127228 199.288940,264.623260 202.442917,262.836304 
	C202.442917,262.156250 202.640869,261.428497 202.413986,260.874847 
	C196.552185,246.571396 190.645264,232.286438 184.749023,217.997116 
	C184.138092,216.516541 183.255844,215.478958 181.467651,215.412796 
	C179.468170,215.338806 178.394775,216.435913 177.697739,218.082077 
	C176.207184,221.602295 174.751328,225.137222 172.994629,229.374222 
M246.525421,215.477463 
	C244.103287,215.732544 244.306900,217.597000 244.304062,219.234894 
	C244.280670,232.733673 244.326752,246.232666 244.257950,259.731140 
	C244.244110,262.445343 245.191208,263.698883 248.026703,263.662567 
	C255.024887,263.572968 262.025085,263.649872 269.024384,263.633209 
	C270.710266,263.629211 272.567139,263.695160 272.656250,261.282104 
	C272.751678,258.698242 270.938599,258.385498 268.951843,258.382568 
	C264.118958,258.375427 259.274017,258.160553 254.456787,258.433502 
	C250.083588,258.681305 249.154922,256.717346 249.263351,252.756668 
	C249.564194,241.766479 249.523468,230.766586 249.578873,219.770340 
	C249.587906,217.980103 249.882446,215.929794 246.525421,215.477463 
M218.327469,238.499939 
	C218.328583,245.661331 218.324921,252.822739 218.334259,259.984131 
	C218.336502,261.703217 218.350433,263.453888 220.741882,263.570374 
	C223.372986,263.698517 223.641922,261.938110 223.641388,259.937408 
	C223.637802,246.280823 223.631378,232.624222 223.659622,218.967697 
	C223.663910,216.894226 223.346481,215.344299 220.699905,215.473358 
	C218.168411,215.596832 218.351776,217.341003 218.346878,219.013596 
	C218.328842,225.175674 218.332184,231.337845 218.327469,238.499939 
z"/>
<path fill="#000000" opacity="1.000000" stroke="none" 
	d="
M293.453552,220.985901 
	C297.106995,219.195312 299.057037,221.000275 300.761475,223.582169 
	C305.144653,230.221878 309.574127,236.831009 314.176147,243.739136 
	C318.036133,240.936264 319.644745,237.036438 321.958313,233.730621 
	C324.535553,230.048080 326.885498,226.206894 329.353912,222.447586 
	C330.583496,220.574921 332.354584,219.796982 334.525452,220.312927 
	C337.084625,220.921143 336.414551,223.067230 336.449554,224.814682 
	C336.653015,234.970566 335.997955,245.135010 336.801117,255.288132 
	C336.930817,256.927856 336.597290,258.603607 336.485779,260.263245 
	C336.354187,262.221161 335.465332,263.262238 333.352264,263.295746 
	C330.824158,263.335815 330.166718,261.792145 330.196442,259.773560 
	C330.265106,255.113892 330.512451,250.457016 330.599213,245.797379 
	C330.670135,241.988922 330.613647,238.178085 329.426605,234.005859 
	C326.135254,238.862732 322.860229,243.730743 319.548187,248.573425 
	C315.985474,253.782562 313.195557,253.798340 309.748169,248.635315 
	C306.612396,243.938950 303.509644,239.220535 299.209717,234.622910 
	C299.209717,239.426147 299.217682,244.229385 299.207123,249.032608 
	C299.199066,252.697876 299.174988,256.363129 299.143646,260.028290 
	C299.124420,262.277527 298.048126,263.339844 295.723602,263.280121 
	C293.617798,263.225983 292.688263,262.228912 292.716125,260.201874 
	C292.894409,247.227875 292.125671,234.243240 293.453552,220.985901 
z"/>
<path fill="#000000" opacity="1.000000" stroke="none" 
	d="
M363.955841,219.969208 
	C366.443329,219.991470 368.442047,219.981781 370.438568,220.043869 
	C372.630341,220.112030 374.381927,220.634003 374.271301,223.442825 
	C374.168732,226.047501 372.469330,226.288437 370.505768,226.291626 
	C366.509583,226.298126 362.510559,226.390656 358.518127,226.269608 
	C355.640869,226.182343 354.373169,227.139679 354.250916,230.250778 
	C353.920654,238.654968 353.787781,238.646408 362.065979,238.662308 
	C364.729919,238.667419 367.394104,238.675217 370.057556,238.719833 
	C371.718536,238.747665 372.992340,239.273209 373.079193,241.249786 
	C373.172729,243.378052 372.070129,244.298294 370.068573,244.315018 
	C366.239227,244.347031 362.402954,244.496613 358.582275,244.320511 
	C355.278229,244.168243 354.309723,245.568665 354.250854,248.739914 
	C354.085297,257.662628 353.965302,257.655670 363.012512,257.658264 
	C366.009399,257.659119 369.006409,257.680206 372.003143,257.713013 
	C373.925934,257.734070 375.187225,258.448730 375.164734,260.645020 
	C375.141052,262.957581 373.634827,263.340668 371.822357,263.341858 
	C364.995850,263.346344 358.169220,263.306732 351.342865,263.334778 
	C348.775726,263.345306 347.777435,262.019257 347.777710,259.610504 
	C347.779083,247.622086 347.780975,235.633606 347.740509,223.645294 
	C347.731781,221.055023 349.146759,220.074921 351.478943,220.043716 
	C355.474274,219.990234 359.470367,219.990921 363.955841,219.969208 
z"/>
<path fill="#000000" opacity="1.000000" stroke="none" 
	d="
M186.045929,234.080154 
	C187.393982,238.498672 190.081787,242.080902 190.372299,247.161804 
	C184.268555,247.534195 178.427734,247.597382 171.824249,247.039612 
	C173.946899,238.858444 177.427124,231.779831 180.763657,223.882248 
	C183.849411,227.186127 184.349808,230.736862 186.045929,234.080154 
z"/>
</svg>